:FULLY-SPECIFIED
:FORCE-ALL-JOINTS-BE-3DOF
:DEGREES
102
root -2.86168 16.5075 -36.2275 2.72472 0.230847 -2.40061
lfemur -20.9066 5.80346 -8.93693
ltibia 44.5442 0 0
lfoot -21.5755 0.0759163 0
ltoes -8.09417 0 0
rfemur -21.3956 -5.77514 13.963
rtibia 47.2322 0 0
rfoot -25.5069 1.5592 0
rtoes -6.61349 0 0
lowerback 8.63148 1.99097 -1.66965
upperback -3.41161 2.56884 1.23558
thorax -8.59994 1.38182 1.83683
lowerneck -2.61298 -3.85768 -6.62598
upperneck 5.28236 -5.19175 6.04197
head 2.54494 -2.56751 2.99032
lclavicle -9.07528e-16 5.6296e-15 0
lhumerus -26.5755 -3.9569 89.4363
lradius 24.9835 0 0
lwrist -30.5488 0 0
lhand -28.667 30.2857 0
lfingers 7.12502 0 0
lthumb -2.03009 60.2557 0
rclavicle -9.07528e-16 5.6296e-15 0
rhumerus -32.5205 2.91779 -80.4444
rradius 30.6219 0 0
rwrist 2.60102 0 0
rhand -20.0941 -27.0432 0
rfingers 7.12502 0 0
rthumb 6.24894 -56.9309 0
103
root -2.85965 16.5059 -36.2252 2.76158 0.240226 -2.41202
lfemur -20.962 5.8038 -8.93318
ltibia 44.585 0 0
lfoot -21.6021 0.0892518 0
ltoes -8.13364 0 0
rfemur -21.4376 -5.79609 13.9695
rtibia 47.2546 0 0
rfoot -25.5254 1.56658 0
rtoes -6.64076 0 0
lowerback 8.57639 1.98927 -1.67736
upperback -3.43029 2.56655 1.23684
thorax -8.58835 1.38138 1.84428
lowerneck -2.61421 -3.85857 -6.62373
upperneck 5.31436 -5.19428 6.04373
head 2.55609 -2.56871 2.99045
lclavicle -8.94442e-16 6.19596e-15 0
lhumerus -26.5751 -3.9292 89.424
lradius 24.9803 0 0
lwrist -30.5572 0 0
lhand -28.6578 30.2958 0
lfingers 7.12502 0 0
lthumb -2.02118 60.2659 0
rclavicle -8.94442e-16 6.19596e-15 0
rhumerus -32.5273 2.89744 -80.4421
rradius 30.6166 0 0
rwrist 2.60641 0 0
rhand -20.0823 -27.0533 0
rfingers 7.12502 0 0
rthumb 6.26034 -56.9407 0
104
root -2.85761 16.5042 -36.223 2.79843 0.249604 -2.42342
lfemur -21.0175 5.80413 -8.92944
ltibia 44.6258 0 0
lfoot -21.6288 0.102587 0
ltoes -8.17311 0 0
rfemur -21.4797 -5.81705 13.976
rtibia 47.277 0 0
rfoot -25.5439 1.57395 0
rtoes -6.66802 0 0
lowerback 8.52131 1.98756 -1.68508
upperback -3.44898 2.56427 1.23811
thorax -8.57677 1.38095 1.85173
lowerneck -2.61543 -3.85946 -6.62147
upperneck 5.34635 -5.19681 6.04548
head 2.56725 -2.5699 2.99058
lclavicle -8.81357e-16 6.76231e-15 0
lhumerus -26.5746 -3.9015 89.4117
lradius 24.977 0 0
lwrist -30.5656 0 0
lhand -28.6485 30.306 0
lfingers 7.12502 0 0
lthumb -2.01227 60.2762 0
rclavicle -8.81357e-16 6.76231e-15 0
rhumerus -32.5341 2.87709 -80.4399
rradius 30.6114 0 0
rwrist 2.61181 0 0
rhand -20.0705 -27.0635 0
rfingers 7.12502 0 0
rthumb 6.27174 -56.9505 0
105
root -2.85558 16.5026 -36.2207 2.83529 0.258983 -2.43483
lfemur -21.0729 5.80447 -8.92569
ltibia 44.6666 0 0
lfoot -21.6554 0.115923 0
ltoes -8.21258 0 0
rfemur -21.5217 -5.838 13.9825
rtibia 47.2994 0 0
rfoot -25.5624 1.58133 0
rtoes -6.69529 0 0
lowerback 8.46622 1.98586 -1.69279
upperback -3.46766 2.56198 1.23937
thorax -8.56518 1.38051 1.85918
lowerneck -2.61666 -3.86035 -6.61922
upperneck 5.37835 -5.19934 6.04724
head 2.5784 -2.5711 2.99071
lclavicle -8.68271e-16 7.32867e-15 0
lhumerus -26.5742 -3.8738 89.3994
lradius 24.9738 0 0
lwrist -30.574 0 0
lhand -28.6393 30.3161 0
lfingers 7.12502 0 0
lthumb -2.00336 60.2864 0
rclavicle -8.68271e-16 7.32867e-15 0
rhumerus -32.5409 2.85674 -80.4376
rradius 30.6061 0 0
rwrist 2.6172 0 0
rhand -20.0587 -27.0736 0
rfingers 7.12502 0 0
rthumb 6.28314 -56.9603 0
106
root -2.85355 16.501 -36.2184 2.87214 0.268362 -2.44624
lfemur -21.1284 5.80481 -8.92194
ltibia 44.7074 0 0
lfoot -21.6821 0.129258 0
ltoes -8.25206 0 0
rfemur -21.5637 -5.85896 13.989
rtibia 47.3217 0 0
rfoot -25.5809 1.58871 0
rtoes -6.72255 0 0
lowerback 8.41113 1.98416 -1.7005
upperback -3.48634 2.5597 1.24064
thorax -8.5536 1.38008 1.86663
lowerneck -2.61789 -3.86124 -6.61697
upperneck 5.41034 -5.20187 6.049
head 2.58955 -2.5723 2.99084
lclavicle -8.55186e-16 7.89502e-15 0
lhumerus -26.5737 -3.8461 89.3871
lradius 24.9706 0 0
lwrist -30.5824 0 0
lhand -28.6301 30.3263 0
lfingers 7.12502 0 0
lthumb -1.99445 60.2967 0
rclavicle -8.55186e-16 7.89502e-15 0
rhumerus -32.5477 2.8364 -80.4354
rradius 30.6009 0 0
rwrist 2.62259 0 0
rhand -20.0469 -27.0837 0
rfingers 7.12502 0 0
rthumb 6.29454 -56.97 0
107
root -2.85152 16.4994 -36.2161 2.90899 0.27774 -2.45765
lfemur -21.1838 5.80514 -8.91819
ltibia 44.7483 0 0
lfoot -21.7087 0.142594 0
ltoes -8.29153 0 0
rfemur -21.6057 -5.87991 13.9954
rtibia 47.3441 0 0
rfoot -25.5994 1.59609 0
rtoes -6.74982 0 0
lowerback 8.35604 1.98246 -1.70822
upperback -3.50502 2.55742 1.2419
thorax -8.54201 1.37964 1.87407
lowerneck -2.61911 -3.86214 -6.61471
upperneck 5.44233 -5.2044 6.05076
head 2.6007 -2.5735 2.99096
lclavicle -8.42101e-16 8.46138e-15 0
lhumerus -26.5732 -3.81839 89.3749
lradius 24.9674 0 0
lwrist -30.5909 0 0
lhand -28.6209 30.3365 0
lfingers 7.12502 0 0
lthumb -1.98553 60.3069 0
rclavicle -8.42101e-16 8.46138e-15 0
rhumerus -32.5545 2.81605 -80.4331
rradius 30.5956 0 0
rwrist 2.62798 0 0
rhand -20.0351 -27.0938 0
rfingers 7.12502 0 0
rthumb 6.30594 -56.9798 0
